<mxfile host="app.diagrams.net" agent="Mozilla/5.0 (X11; Linux x86_64; rv:128.0) Gecko/20100101 Firefox/128.0" version="24.7.14">
  <diagram name="Página-1" id="F3T02Rne6D91PIZTtT2a">
    <mxGraphModel dx="1414" dy="1939" grid="1" gridSize="10" guides="1" tooltips="1" connect="1" arrows="1" fold="1" page="1" pageScale="1" pageWidth="827" pageHeight="1169" math="0" shadow="0">
      <root>
        <mxCell id="0" />
        <mxCell id="1" parent="0" />
        <mxCell id="RO23sIAU-HALjPvH9hgH-1" value="" style="rounded=0;whiteSpace=wrap;html=1;" parent="1" vertex="1">
          <mxGeometry x="239" y="-50" width="350" height="340" as="geometry" />
        </mxCell>
        <mxCell id="RO23sIAU-HALjPvH9hgH-2" value="&lt;div&gt;Administrador&lt;/div&gt;&lt;div&gt;&lt;br&gt;&lt;/div&gt;" style="shape=umlActor;verticalLabelPosition=bottom;verticalAlign=top;html=1;outlineConnect=0;" parent="1" vertex="1">
          <mxGeometry x="600" y="-21" width="30" height="60" as="geometry" />
        </mxCell>
        <mxCell id="RO23sIAU-HALjPvH9hgH-11" value="&lt;div&gt;Funcionário&lt;/div&gt;&lt;div&gt;&lt;br&gt;&lt;/div&gt;" style="shape=umlActor;verticalLabelPosition=bottom;verticalAlign=top;html=1;outlineConnect=0;" parent="1" vertex="1">
          <mxGeometry x="194" y="-21" width="30" height="60" as="geometry" />
        </mxCell>
        <mxCell id="RO23sIAU-HALjPvH9hgH-13" value="Academia" style="text;html=1;align=center;verticalAlign=middle;whiteSpace=wrap;rounded=0;" parent="1" vertex="1">
          <mxGeometry x="384" y="-51" width="60" height="30" as="geometry" />
        </mxCell>
        <mxCell id="RO23sIAU-HALjPvH9hgH-14" value="&lt;font style=&quot;font-size: 10px;&quot;&gt;Gerenciar cadastro de cliente&lt;/font&gt;" style="ellipse;whiteSpace=wrap;html=1;" parent="1" vertex="1">
          <mxGeometry x="285" y="10" width="80" height="50" as="geometry" />
        </mxCell>
        <mxCell id="RO23sIAU-HALjPvH9hgH-19" value="&lt;font size=&quot;1&quot;&gt;Gerenciar horário de funcionário&lt;/font&gt;" style="ellipse;whiteSpace=wrap;html=1;" parent="1" vertex="1">
          <mxGeometry x="490" y="70" width="90" height="50" as="geometry" />
        </mxCell>
        <mxCell id="RO23sIAU-HALjPvH9hgH-20" value="&lt;font style=&quot;font-size: 10px;&quot;&gt;Gerenciar horário do cliente&lt;br&gt;&lt;/font&gt;" style="ellipse;whiteSpace=wrap;html=1;" parent="1" vertex="1">
          <mxGeometry x="280" y="70" width="90" height="50" as="geometry" />
        </mxCell>
        <mxCell id="RO23sIAU-HALjPvH9hgH-22" value="&lt;font style=&quot;font-size: 10px;&quot;&gt;Gerenciar turmas de aluno&lt;br&gt;&lt;/font&gt;" style="ellipse;whiteSpace=wrap;html=1;" parent="1" vertex="1">
          <mxGeometry x="280" y="130" width="90" height="50" as="geometry" />
        </mxCell>
        <mxCell id="RO23sIAU-HALjPvH9hgH-26" value="&lt;font style=&quot;font-size: 10px;&quot;&gt;Emitir relatório de ficha de aluno por turma&lt;br&gt;&lt;/font&gt;" style="ellipse;whiteSpace=wrap;html=1;" parent="1" vertex="1">
          <mxGeometry x="270" y="190" width="110" height="60" as="geometry" />
        </mxCell>
        <mxCell id="RO23sIAU-HALjPvH9hgH-29" value="&lt;font style=&quot;font-size: 10px;&quot;&gt;Emitir relatório de turmas para funcionários&lt;br&gt;&lt;/font&gt;" style="ellipse;whiteSpace=wrap;html=1;" parent="1" vertex="1">
          <mxGeometry x="490" y="130" width="90" height="70" as="geometry" />
        </mxCell>
        <mxCell id="RO23sIAU-HALjPvH9hgH-34" value="" style="endArrow=none;html=1;rounded=0;entryX=0;entryY=0.5;entryDx=0;entryDy=0;exitX=0.5;exitY=0.5;exitDx=0;exitDy=0;exitPerimeter=0;" parent="1" source="RO23sIAU-HALjPvH9hgH-11" target="RO23sIAU-HALjPvH9hgH-20" edge="1">
          <mxGeometry width="50" height="50" relative="1" as="geometry">
            <mxPoint x="220" y="20" as="sourcePoint" />
            <mxPoint x="290" y="45" as="targetPoint" />
          </mxGeometry>
        </mxCell>
        <mxCell id="RO23sIAU-HALjPvH9hgH-35" value="" style="endArrow=none;html=1;rounded=0;entryX=0;entryY=0.5;entryDx=0;entryDy=0;" parent="1" target="RO23sIAU-HALjPvH9hgH-22" edge="1">
          <mxGeometry width="50" height="50" relative="1" as="geometry">
            <mxPoint x="210" y="10" as="sourcePoint" />
            <mxPoint x="260" y="-40" as="targetPoint" />
          </mxGeometry>
        </mxCell>
        <mxCell id="RO23sIAU-HALjPvH9hgH-36" value="" style="endArrow=none;html=1;rounded=0;exitX=0.5;exitY=0.5;exitDx=0;exitDy=0;exitPerimeter=0;entryX=0;entryY=0.5;entryDx=0;entryDy=0;" parent="1" source="RO23sIAU-HALjPvH9hgH-11" target="RO23sIAU-HALjPvH9hgH-26" edge="1">
          <mxGeometry width="50" height="50" relative="1" as="geometry">
            <mxPoint x="210" y="20" as="sourcePoint" />
            <mxPoint x="260" y="-30" as="targetPoint" />
          </mxGeometry>
        </mxCell>
        <mxCell id="RO23sIAU-HALjPvH9hgH-37" value="" style="endArrow=none;html=1;rounded=0;entryX=0.5;entryY=0.5;entryDx=0;entryDy=0;entryPerimeter=0;exitX=1;exitY=0.5;exitDx=0;exitDy=0;" parent="1" source="RO23sIAU-HALjPvH9hgH-19" target="RO23sIAU-HALjPvH9hgH-2" edge="1">
          <mxGeometry width="50" height="50" relative="1" as="geometry">
            <mxPoint x="600" y="60" as="sourcePoint" />
            <mxPoint x="650" y="10" as="targetPoint" />
          </mxGeometry>
        </mxCell>
        <mxCell id="RO23sIAU-HALjPvH9hgH-40" value="" style="endArrow=none;html=1;rounded=0;exitX=1;exitY=0.5;exitDx=0;exitDy=0;entryX=0.5;entryY=0.5;entryDx=0;entryDy=0;entryPerimeter=0;" parent="1" target="RO23sIAU-HALjPvH9hgH-2" edge="1">
          <mxGeometry width="50" height="50" relative="1" as="geometry">
            <mxPoint x="580" y="95" as="sourcePoint" />
            <mxPoint x="645" y="190" as="targetPoint" />
          </mxGeometry>
        </mxCell>
        <mxCell id="RO23sIAU-HALjPvH9hgH-41" value="" style="endArrow=none;html=1;rounded=0;exitX=1;exitY=0.5;exitDx=0;exitDy=0;entryX=0.5;entryY=0.5;entryDx=0;entryDy=0;entryPerimeter=0;" parent="1" target="RO23sIAU-HALjPvH9hgH-2" edge="1">
          <mxGeometry width="50" height="50" relative="1" as="geometry">
            <mxPoint x="580" y="170" as="sourcePoint" />
            <mxPoint x="645" y="265" as="targetPoint" />
          </mxGeometry>
        </mxCell>
        <mxCell id="eAnpDHlUagr_-u3fIIRH-1" value="" style="endArrow=none;html=1;rounded=0;entryX=0;entryY=0.5;entryDx=0;entryDy=0;" edge="1" parent="1" target="RO23sIAU-HALjPvH9hgH-14">
          <mxGeometry width="50" height="50" relative="1" as="geometry">
            <mxPoint x="210" y="10" as="sourcePoint" />
            <mxPoint x="260" y="-40" as="targetPoint" />
          </mxGeometry>
        </mxCell>
      </root>
    </mxGraphModel>
  </diagram>
</mxfile>
